<svg width="20" height="20" viewBox="0 0 20 20" fill="none" xmlns="http://www.w3.org/2000/svg">
<path d="M8.99999 2.99959C9.03463 2.91102 8.92413 3.05292 8.99999 2.99959C9.07584 2.94627 8.90865 2.99959 8.99999 2.99959C9.09132 2.99959 9.92413 2.94627 9.99999 2.99959C10.0758 3.05292 9.96534 2.91102 9.99999 2.99959L12 7.99959C12.0326 8.0817 11.9313 7.94734 12 7.99959C12.0686 8.05185 11.9154 7.99251 12 7.99959H17C17.4087 8.03393 17.3113 8.72058 17 8.99959L13 11.9996C12.9356 12.0573 13.0263 12.9152 13 12.9996C12.9737 13.0839 12.9806 12.9132 13 12.9996L14 16.9996C14.0211 17.0923 14.0315 17.9101 14 17.9996C13.9684 18.089 14.0736 17.9436 14 17.9996C13.9264 18.0556 14.0909 17.9958 14 17.9996C13.9091 18.0033 14.0776 18.0494 14 17.9996L9.99999 14.9996C9.92768 14.9534 9.08466 14.9996 8.99999 14.9996C8.91531 14.9996 9.07229 14.9534 8.99999 14.9996L4.99999 17.9996C4.92238 18.0494 5.09091 18.0033 4.99999 17.9996C4.90906 17.9958 5.07361 18.0556 4.99999 17.9996C4.92636 17.9436 5.03153 18.089 4.99999 17.9996C4.96844 17.9101 4.97883 17.0923 4.99999 16.9996L5.99999 12.9996C6.01951 12.9132 6.02629 13.084 5.99999 12.9996C5.97368 12.9152 6.0644 12.0572 5.99999 11.9996L1.99999 8.99959C1.93102 8.93745 2.02453 9.09137 1.99999 8.99959C1.97544 8.90781 1.97188 9.09025 1.99999 8.99959C2.02809 8.90894 1.92866 8.05873 1.99999 7.99959C2.07132 7.94046 1.90934 8.00739 1.99999 7.99959H6.99999C7.08456 7.99251 6.93134 8.05185 6.99999 7.99959C7.06864 7.94734 6.9674 8.0817 6.99999 7.99959L8.99999 2.99959Z" stroke="#7C91FF" stroke-width="1.5" stroke-linecap="round" stroke-linejoin="round"/>
</svg>
